<svg width="512" height="512" viewBox="0 0 512 512" xmlns="http://www.w3.org/2000/svg">
  <!-- Background: Dark Navy Blue (Exness style) -->
  <rect width="512" height="512" rx="100" fill="#000000"/>
  
  <!-- Symbol 'ex' mimic -->
  <g transform="translate(60, 140) scale(1.1)">
    <!-- 'e' shape -->
    <path fill="#FFD500" d="M140 120c-44.18 0-80 35.82-80 80s35.82 80 80 80h90v-40h-90c-22.09 0-40-17.91-40-40s17.91-40 40-40h90v-40h-90z"/>
    <rect x="140" y="160" width="90" height="30" fill="#FFD500"/>

    <!-- 'x' shape -->
    <path fill="#FFD500" d="M280 120l45 65 45-65h45l-65 90 65 90h-45l-45-65-45 65h-45l65-90-65-90h45z"/>
  </g>
</svg>
